# xmcd
#
# Track frame offsets:
#	150
#	13752
#	31107
#	44785
#	57822
#	70957
#	82505
#	97040
#	113607
#	128887
#	145557
#	160790
#	173185
#	187732
#
# Disc length: 2693 seconds
#
# Revision: 3
# Processed by: cddbd v1.4PL0 Copyright (c) Steve Scherf et al.
# Submitted via: audiograbber 1.81.01
#
DISCID=aa0a830e
DTITLE=Stefanie Hertel - Das Beste Von Stefanie Hertel
DYEAR=1900
DGENRE=Folk
TTITLE0=So A Stückerl Heile Welt
TTITLE1=Hab Mich Lieb
TTITLE2=Ferien Auf Dem Bauernhof
TTITLE3=Mehr Zeit Für Uns Beide
TTITLE4=Über Jedes Bacherl Geht A Brückerl
TTITLE5=Mit Dem Sonnenschein Im Herzen
TTITLE6=Mit Einem Rucksack Voller Lieder
TTITLE7=Die Alte Birke Darf Nicht Sterben
TTITLE8=Tausend Kleine Himmel
TTITLE9=Nicht Jeder Kann Ein Mozart Sein
TTITLE10=Wenn Ich Den Ersten Walzer Tanz
TTITLE11=Heut Möcht' Ich Am Liebsten Ein Schmetterling Sein
TTITLE12=Kleiner Clown
TTITLE13=Laßt Die Weißen Tauben Fliegen
EXTD=
EXTT0=
EXTT1=
EXTT2=
EXTT3=
EXTT4=
EXTT5=
EXTT6=
EXTT7=
EXTT8=
EXTT9=
EXTT10=
EXTT11=
EXTT12=
EXTT13=
PLAYORDER=
